<svg data-v-423bf9ae="" xmlns="http://www.w3.org/2000/svg" viewBox="0 0 369 90" class="iconLeft"><!----><!----><!----><g data-v-423bf9ae="" id="daf07d9b-5506-43bd-8f6a-b00bd0c689eb" fill="black" transform="matrix(5.970149706951518,0,0,5.970149706951518,114.16000329075172,-6.970149651202021)"><path d="M2.73 5.52L7.78 5.52L7.78 4.36L1.50 4.36L1.50 13.52L7.78 13.52L7.78 12.36L2.73 12.36L2.73 9.41L7.19 9.41L7.19 8.24L2.73 8.24ZM12.85 13.52L16.06 6.69L14.72 6.69L12.48 11.72L10.42 6.69L9.08 6.69L12.15 13.52ZM20.52 6.55C18.44 6.55 16.95 8.20 16.95 10.14C16.95 12.09 18.44 13.73 20.52 13.73C22.60 13.73 24.09 12.09 24.09 10.14C24.09 8.20 22.60 6.55 20.52 6.55ZM20.52 7.64C21.98 7.64 22.93 8.82 22.93 10.14C22.93 11.47 21.98 12.63 20.52 12.63C19.06 12.63 18.12 11.47 18.12 10.14C18.12 8.82 19.06 7.64 20.52 7.64ZM27.06 13.52L27.06 3.68L25.94 3.68L25.94 13.52ZM32.20 13.52L35.41 6.69L34.07 6.69L31.83 11.72L29.76 6.69L28.42 6.69L31.50 13.52ZM42.60 9.87C42.60 8.00 41.56 6.55 39.46 6.55C37.53 6.55 36.16 8.20 36.16 10.14C36.16 12.09 37.65 13.73 39.73 13.73C40.80 13.73 41.51 13.26 41.78 12.99L41.78 11.85C41.33 12.18 40.71 12.63 39.73 12.63C38.42 12.63 37.52 11.69 37.35 10.54L42.60 10.54ZM37.38 9.58C37.57 8.50 38.34 7.64 39.46 7.64C40.41 7.64 41.36 8.26 41.49 9.58Z"></path></g><!----><g data-v-423bf9ae="" id="e5bab0e4-92e0-4cff-a789-e97ff2a617ff" transform="matrix(1.031152276270433,0,0,1.031152276270433,0.4423861864783447,-10.315977527278044)" stroke="none" fill="black"><path d="M41.514 32.562c.813 0 1.609-.063 2.393-.172l-7.386-7.387 1.981-1.98 7.409 7.408c.144-.904.229-1.827.229-2.773 0-9.673-7.842-17.515-17.516-17.515-1.399 0-2.756.168-4.058.478A17.506 17.506 0 0 0 24 15.047c-.001 9.673 7.839 17.515 17.514 17.515zM48.072 50.375a27.342 27.342 0 0 1-.078-1.853c0-.198.01-.387.018-.58H48c.004-.064.012-.127.018-.191a13.32 13.32 0 0 1 .286-2.253c1.774-9.523 10.416-16.49 20.333-15.909 1.488.087 2.963.342 4.379.759l-.789 2.689a16.89 16.89 0 0 0-3.752-.651c-7.615-.446-14.35 4.302-16.76 11.164a35.671 35.671 0 0 0 20.07 6.154 35.724 35.724 0 0 0 21.988-7.533C91.391 30.68 81.211 22.043 69.012 22.043c-10.645 0-19.746 6.584-23.475 15.899-.03.074-.066.14-.097.215a25.25 25.25 0 0 0-1.714 9.173c0 .791.077 1.944.185 3.044h4.161zM95.783 49.783c-3.957-1.213-6.449 1.604-6.449 1.604L67.26 73.688l-19.743.024s-2.265-2.083-3.427-4.561-1.052-5.236-1.052-5.236l20.958.026s4.809.211 6.021-3.791c.59-1.944.621-4.762.621-4.762l-42.006-.014-4.035-.001s-2.581.057-3.746.561c-1.228.531-2.395 1.684-2.395 1.684L0 75.964l21.46 21.46 12.348-11.957h35.383s2.738.136 4.275-.802c1.264-.772 2.295-2.279 2.295-2.279L100 52.619s-.855-1.805-4.217-2.836z"></path></g><!----></svg>