<svg data-v-fde0c5aa="" xmlns="http://www.w3.org/2000/svg" viewBox="0 0 300 300" class="font"><!----><defs data-v-fde0c5aa=""><!----></defs><rect data-v-fde0c5aa="" fill="transparent" x="0" y="0" width="300px" height="300px" class="logo-background-square"></rect><defs data-v-fde0c5aa=""><linearGradient data-v-fde0c5aa="" gradientTransform="rotate(25)" id="f7533ab7-2cd1-4585-8b9b-d330559fbfbe" x1="0%" y1="0%" x2="100%" y2="0%"><stop data-v-fde0c5aa="" offset="0%" stop-color="#000A68" stop-opacity="1"></stop><stop data-v-fde0c5aa="" offset="100%" stop-color="#00C4EE" stop-opacity="1"></stop></linearGradient></defs><g data-v-fde0c5aa="" id="355796d8-779a-4807-84dc-31334239f3af" fill="url(#f7533ab7-2cd1-4585-8b9b-d330559fbfbe)" transform="matrix(5.352798252256008,0,0,5.352798252256008,31.970802621615988,103.4038928987041)"><path d="M2.73 5.52L7.78 5.52L7.78 4.36L1.50 4.36L1.50 13.52L7.78 13.52L7.78 12.36L2.73 12.36L2.73 9.41L7.19 9.41L7.19 8.24L2.73 8.24ZM12.85 13.52L16.06 6.69L14.72 6.69L12.48 11.72L10.42 6.69L9.08 6.69L12.15 13.52ZM20.52 6.55C18.44 6.55 16.95 8.20 16.95 10.14C16.95 12.09 18.44 13.73 20.52 13.73C22.60 13.73 24.09 12.09 24.09 10.14C24.09 8.20 22.60 6.55 20.52 6.55ZM20.52 7.64C21.98 7.64 22.93 8.82 22.93 10.14C22.93 11.47 21.98 12.63 20.52 12.63C19.06 12.63 18.12 11.47 18.12 10.14C18.12 8.82 19.06 7.64 20.52 7.64ZM27.06 13.52L27.06 3.68L25.94 3.68L25.94 13.52ZM32.20 13.52L35.41 6.69L34.07 6.69L31.83 11.72L29.76 6.69L28.42 6.69L31.50 13.52ZM42.60 9.87C42.60 8.00 41.56 6.55 39.46 6.55C37.53 6.55 36.16 8.20 36.16 10.14C36.16 12.09 37.65 13.73 39.73 13.73C40.80 13.73 41.51 13.26 41.78 12.99L41.78 11.85C41.33 12.18 40.71 12.63 39.73 12.63C38.42 12.63 37.52 11.69 37.35 10.54L42.60 10.54ZM37.38 9.58C37.57 8.50 38.34 7.64 39.46 7.64C40.41 7.64 41.36 8.26 41.49 9.58Z"></path></g><!----><!----></svg>